<svg version="1" xmlns="http://www.w3.org/2000/svg" width="5556" height="5556" viewBox="0 0 4167.000000 4167.000000"><path d="M382.5 1c-15.9 1.7-22.5 2.5-27.8 3.6-1.2.2-3.9.6-6.2 1-2.2.3-6 1-8.5 1.6-2.5.5-5.6 1.2-7 1.4-21.2 4-57.2 16.6-83 29.1-50.6 24.6-92.6 57.5-134.9 105.8-12.8 14.5-30 38.6-43.8 61-6.9 11.3-25.3 46.1-25.3 47.9 0 .2-1.5 3.7-3.4 7.8-7.6 16.5-17.1 43.5-25 70.8-2 6.9-8.3 35-9.1 41-.4 2.4-.8 4.7-1 5-.1.3-.6 2.7-.9 5.5-.4 2.7-.9 6.5-1.2 8.2-.2 1.8-.6 4.8-.8 6.5-.6 3.8-1.4 10.6-2.1 16.3-.2 2.2-.8 8.5-1.2 14-1 13.2-1 3297.9 0 3311.5.4 5.8 1 11.8 1.2 13.5.2 1.6.6 5.2.9 8 1.1 9.5 2.7 20.6 5.1 34 2.4 14.1 7.1 33.7 12.5 53 8.7 31 27.3 74.7 44.4 104.5 1.4 2.5 3.3 5.8 4.2 7.5 2.2 4 16.2 25.7 18.7 29 .4.5 4.4 6 9 12.1 4.5 6.1 9.7 12.9 11.5 15 1.8 2.1 4.7 5.6 6.5 7.8 10.5 13.1 36.8 39.2 52.7 52.4 13.7 11.3 32.7 24.9 50 35.7 21.7 13.6 55.7 29.2 81.4 37.4 18.5 5.9 47.5 12.5 64 14.6 2.1.2 5.5.7 7.5.9 2 .3 7.2.9 11.6 1.2 11.2 1 3387.6 1 3400.3.1 5.6-.5 11-1 12-1.1.9-.2 4.2-.7 7.2-1.1 67.3-8.6 134.1-37.5 189.7-82.1 40.9-32.9 75.3-72.5 103.8-119.5 10.2-16.8 27.3-51.2 34-68.4 2.6-6.6 5.1-12.9 5.6-14 3.9-8.6 16.2-50.7 19.3-65.7 1.4-6.7 3.7-18.5 4.2-21.2.2-1.7.7-3.8.9-4.6.2-.8.7-4.2 1.1-7.5.3-3.3.8-6.2.9-6.6.2-.3.7-3.9 1.1-8 .3-4 .8-7.6.9-7.9.4-.6 1.1-9.1 2.4-26.5.8-11.6.7-3297.8-.2-3301.5-.3-1.4-.8-6.1-1.2-10.5-.3-4.4-.7-9.4-.9-11-1.3-10.7-1.8-15.2-2.2-17-.2-1.1-.6-3.5-.9-5.2-1.8-13.2-5.1-29.8-9.7-47.8-26.6-105.4-85.8-197.3-166.9-259.3-10.7-8.2-32.2-22.5-41.4-27.7-35.6-20-64.2-31.6-99.6-40.6-12.1-3-24.1-5.5-31.9-6.5-2.5-.3-4.7-.8-5-.9-.3-.2-4.1-.6-8.5-1s-8.9-1-10-1.4C3784.7.2 391 .1 382.5 1z"/></svg>