<?xml version="1.0" standalone="no"?>
<!DOCTYPE svg PUBLIC "-//W3C//DTD SVG 20010904//EN"
 "http://www.w3.org/TR/2001/REC-SVG-20010904/DTD/svg10.dtd">
<svg version="1.0" xmlns="http://www.w3.org/2000/svg"
 width="4167.000000pt" height="4167.000000pt" viewBox="0 0 4167.000000 4167.000000"
 preserveAspectRatio="xMidYMid meet">
<metadata>
Created by potrace 1.11, written by Peter Selinger 2001-2013
</metadata>
<g transform="translate(0.000000,4167.000000) scale(0.100000,-0.100000)"
fill="#000000" stroke="none">
<path d="M3825 41660 c-159 -17 -225 -25 -278 -36 -12 -2 -39 -6 -62 -10 -22
-3 -60 -10 -85 -16 -25 -5 -56 -12 -70 -14 -212 -40 -572 -166 -830 -291 -506
-246 -926 -575 -1349 -1058 -128 -145 -300 -386 -438 -610 -69 -113 -253 -461
-253 -479 0 -2 -15 -37 -34 -78 -76 -165 -171 -435 -250 -708 -20 -69 -83
-350 -91 -410 -4 -24 -8 -47 -10 -50 -1 -3 -6 -27 -9 -55 -4 -27 -9 -65 -12
-82 -2 -18 -6 -48 -8 -65 -6 -38 -14 -106 -21 -163 -2 -22 -8 -85 -12 -140
-10 -132 -10 -32979 0 -33115 4 -58 10 -118 12 -135 2 -16 6 -52 9 -80 11 -95
27 -206 51 -340 24 -141 71 -337 125 -530 87 -310 273 -747 444 -1045 14 -25
33 -58 42 -75 22 -40 162 -257 187 -290 4 -5 44 -60 90 -121 45 -61 97 -129
115 -150 18 -21 47 -56 65 -78 105 -131 368 -392 527 -524 137 -113 327 -249
500 -357 217 -136 557 -292 814 -374 185 -59 475 -125 640 -146 21 -2 55 -7
75 -9 20 -3 72 -9 116 -12 112 -10 33876 -10 34003 -1 56 5 110 10 120 11 9 2
42 7 72 11 673 86 1341 375 1897 821 409 329 753 725 1038 1195 102 168 273
512 340 684 26 66 51 129 56 140 39 86 162 507 193 657 14 67 37 185 42 212 2
17 7 38 9 46 2 8 7 42 11 75 3 33 8 62 9 66 2 3 7 39 11 80 3 40 8 76 9 79 4
6 11 91 24 265 8 116 7 32978 -2 33015 -3 14 -8 61 -12 105 -3 44 -7 94 -9
110 -13 107 -18 152 -22 170 -2 11 -6 35 -9 52 -18 132 -51 298 -97 478 -266
1054 -858 1973 -1669 2593 -107 82 -322 225 -414 277 -356 200 -642 316 -996
406 -121 30 -241 55 -319 65 -25 3 -47 8 -50 9 -3 2 -41 6 -85 10 -44 4 -89
10 -100 14 -28 9 -33965 10 -34050 1z"/>
</g>
</svg>
