<?xml version="1.0" standalone="no"?>
<!DOCTYPE svg PUBLIC "-//W3C//DTD SVG 20010904//EN"
 "http://www.w3.org/TR/2001/REC-SVG-20010904/DTD/svg10.dtd">
<svg version="1.0" xmlns="http://www.w3.org/2000/svg"
 width="16.000000pt" height="16.000000pt" viewBox="0 0 16.000000 16.000000"
 preserveAspectRatio="xMidYMid meet">
<metadata>
Created by potrace 1.11, written by Peter Selinger 2001-2013
</metadata>
<g transform="translate(0.000000,16.000000) scale(0.001016,-0.001016)"
fill="#000000" stroke="none">
<path d="M7618 15505 c-2 -1 -61 -6 -133 -9 -71 -4 -146 -9 -165 -11 -19 -2
-71 -6 -115 -9 -44 -4 -91 -8 -105 -11 -14 -2 -45 -6 -70 -9 -88 -10 -145 -17
-170 -22 -14 -2 -43 -6 -65 -9 -22 -3 -51 -7 -65 -10 -14 -3 -54 -10 -90 -15
-78 -13 -210 -37 -265 -50 -22 -5 -53 -11 -70 -14 -121 -21 -542 -136 -770
-210 -77 -25 -143 -45 -148 -45 -4 0 -20 -7 -35 -14 -15 -8 -56 -24 -92 -37
-36 -12 -78 -28 -95 -35 -16 -7 -73 -30 -125 -50 -52 -21 -115 -47 -140 -57
-25 -11 -58 -26 -75 -33 -121 -53 -401 -189 -520 -253 -148 -79 -180 -97 -185
-102 -5 -5 -55 -33 -105 -58 -16 -9 -32 -18 -35 -22 -3 -4 -27 -20 -55 -35
-27 -16 -115 -72 -195 -124 -80 -52 -152 -100 -161 -106 -31 -19 -74 -50 -79
-55 -3 -3 -27 -21 -55 -40 -27 -19 -56 -40 -63 -47 -7 -7 -16 -13 -20 -13 -4
0 -20 -11 -37 -25 -43 -36 -47 -38 -85 -65 -19 -14 -42 -32 -52 -40 -9 -8 -23
-19 -30 -25 -63 -48 -186 -149 -236 -195 -18 -16 -37 -30 -42 -30 -6 0 -10 -4
-10 -9 0 -5 -18 -22 -40 -38 -22 -15 -40 -34 -40 -40 0 -7 -4 -13 -9 -13 -25
0 -432 -406 -571 -570 -12 -14 -33 -38 -48 -55 -15 -16 -50 -58 -79 -92 -29
-35 -59 -70 -67 -79 -9 -8 -16 -18 -16 -22 0 -4 -15 -23 -33 -44 -58 -65 -97
-116 -97 -126 0 -6 -4 -12 -8 -14 -5 -1 -31 -32 -58 -68 -27 -36 -52 -66 -56
-68 -5 -2 -8 -9 -8 -15 0 -10 -45 -75 -97 -142 -5 -5 -46 -68 -92 -140 -46
-71 -92 -142 -103 -157 -10 -15 -18 -32 -18 -38 0 -5 -4 -10 -9 -10 -5 0 -13
-10 -17 -22 -4 -13 -17 -37 -30 -54 -13 -17 -24 -33 -24 -37 0 -3 -22 -43 -50
-90 -27 -47 -50 -90 -50 -96 0 -6 -5 -11 -11 -11 -5 0 -7 -5 -4 -10 3 -6 0
-13 -9 -16 -8 -3 -18 -18 -21 -34 -3 -16 -13 -34 -21 -40 -7 -7 -12 -16 -9
-20 3 -5 1 -11 -4 -14 -13 -8 -159 -307 -238 -486 -8 -19 -22 -49 -29 -67 -27
-60 -163 -408 -164 -416 0 -1 -14 -40 -31 -87 -48 -132 -148 -462 -164 -540
-2 -8 -10 -40 -19 -71 -9 -31 -19 -66 -21 -78 -5 -23 -6 -27 -29 -122 -23 -99
-40 -177 -51 -239 -3 -14 -7 -34 -9 -45 -2 -11 -7 -40 -11 -65 -4 -25 -9 -54
-12 -65 -2 -11 -6 -33 -8 -50 -3 -16 -7 -41 -10 -55 -3 -14 -7 -45 -10 -70 -3
-25 -8 -56 -10 -70 -18 -94 -45 -367 -62 -615 -15 -226 -9 -752 12 -980 8 -83
17 -183 20 -205 2 -14 6 -50 9 -80 6 -48 20 -160 31 -240 2 -14 7 -41 10 -60
4 -19 8 -48 11 -65 2 -16 6 -41 9 -55 10 -48 15 -75 20 -113 3 -20 11 -65 20
-100 8 -34 26 -116 41 -182 32 -145 83 -340 130 -495 20 -63 37 -122 39 -130
2 -8 20 -62 40 -120 21 -58 38 -109 40 -115 2 -11 13 -40 25 -70 4 -11 34 -87
66 -170 31 -82 70 -178 86 -212 15 -34 28 -64 28 -66 0 -15 191 -407 271 -557
72 -135 209 -369 220 -376 5 -3 7 -9 4 -13 -2 -5 4 -16 15 -26 11 -10 20 -24
20 -32 0 -7 5 -13 10 -13 6 0 10 -5 10 -10 0 -13 160 -254 171 -258 5 -2 9 -9
9 -16 0 -6 9 -23 19 -36 11 -14 83 -110 162 -215 78 -104 145 -192 148 -195 4
-3 36 -41 71 -85 36 -44 74 -89 85 -101 11 -12 45 -50 75 -85 126 -146 370
-395 511 -521 41 -36 86 -77 100 -90 53 -47 96 -84 149 -128 30 -25 57 -47 60
-50 3 -3 27 -24 55 -45 27 -22 55 -44 61 -50 6 -5 21 -17 34 -25 12 -8 32 -24
45 -35 40 -36 65 -55 70 -55 5 0 132 -95 162 -120 7 -5 15 -10 18 -10 4 0 13
-6 20 -12 33 -30 45 -38 55 -38 5 0 10 -4 10 -8 0 -5 16 -16 35 -25 19 -9 35
-22 35 -29 0 -6 3 -9 6 -5 3 3 11 1 18 -4 20 -17 180 -121 196 -127 8 -3 17
-8 20 -12 7 -8 62 -43 90 -57 14 -7 43 -24 65 -38 22 -14 47 -28 55 -32 8 -4
17 -9 20 -12 5 -6 24 -16 220 -119 69 -36 127 -69 128 -74 2 -4 9 -8 15 -8 7
0 62 -24 122 -53 150 -73 273 -128 278 -124 1 0 16 -7 32 -16 33 -19 206 -89
355 -143 52 -19 109 -41 125 -47 17 -6 32 -12 35 -13 3 0 84 -26 180 -57 242
-79 648 -184 813 -212 18 -3 39 -8 48 -11 10 -2 30 -7 45 -9 16 -2 39 -6 50
-9 12 -2 39 -7 60 -10 22 -4 64 -11 94 -16 68 -11 124 -20 170 -26 19 -2 49
-6 65 -8 17 -3 57 -8 90 -12 33 -3 71 -8 85 -9 89 -11 221 -22 355 -31 148
-10 682 -11 825 -1 217 15 383 30 470 43 25 3 61 8 80 9 66 7 287 41 376 59
12 2 38 7 59 10 113 18 558 124 715 170 8 3 47 14 85 26 39 12 77 23 85 25 8
2 62 20 120 40 58 20 112 38 120 40 20 5 249 92 275 104 11 5 63 26 115 46 52
21 100 41 105 45 6 3 26 13 45 20 91 35 499 234 615 300 22 13 63 36 92 52 29
16 100 58 159 93 59 36 108 65 110 65 1 0 32 20 68 45 37 25 69 45 72 45 2 0
29 18 59 40 30 22 57 40 60 40 5 0 105 69 115 80 3 3 34 25 70 50 36 24 70 49
76 55 6 5 22 17 34 25 13 8 30 23 39 33 8 9 19 17 24 17 6 0 200 151 217 170
3 3 30 25 60 50 67 55 95 79 124 105 13 11 63 56 111 100 111 100 373 362 451
451 33 37 70 79 84 94 14 14 43 48 65 75 22 27 48 57 58 67 9 10 17 23 17 28
0 6 7 10 15 10 8 0 15 6 15 13 0 6 16 30 35 52 64 73 75 87 75 95 0 5 3 10 8
12 7 3 100 121 132 168 23 34 88 124 99 136 5 6 47 69 94 140 48 71 91 134 97
141 5 7 10 14 10 17 0 2 33 58 73 123 88 140 104 169 223 388 52 95 150 292
204 410 56 122 100 221 105 235 1 3 5 14 10 25 4 11 16 40 26 65 9 25 25 63
35 85 10 22 19 45 20 50 1 6 28 80 59 165 31 85 58 162 60 170 2 8 17 56 33
105 25 76 37 113 58 190 2 6 10 35 19 65 22 78 17 56 74 290 35 146 86 390 96
460 2 14 6 39 9 55 6 33 21 137 30 200 4 22 8 51 11 65 2 14 7 52 10 85 3 33
8 76 10 95 18 165 21 198 32 370 10 172 10 648 0 805 -14 215 -26 356 -32 395
-3 14 -7 50 -10 80 -3 30 -7 66 -10 80 -2 14 -7 44 -10 68 -13 103 -16 128
-21 143 -2 9 -7 34 -9 55 -2 22 -7 50 -10 64 -3 14 -10 51 -15 82 -13 69 -18
95 -25 128 -3 14 -8 41 -11 60 -3 19 -8 38 -10 41 -2 3 -6 20 -9 37 -3 18 -15
69 -26 114 -11 46 -25 101 -29 123 -5 22 -23 87 -40 145 -17 58 -33 116 -36
130 -18 91 -230 680 -305 845 -12 28 -23 52 -24 55 -1 3 -8 21 -17 40 -48 110
-61 137 -69 153 -17 33 -27 53 -97 192 -94 190 -161 314 -232 431 -22 36 -40
68 -40 69 0 6 -180 287 -236 368 -30 43 -54 82 -54 87 0 5 -4 10 -8 12 -4 2
-30 35 -57 73 -27 39 -52 72 -55 75 -3 3 -25 32 -50 65 -24 33 -50 66 -57 73
-7 7 -13 17 -13 20 0 4 -10 18 -23 32 -12 14 -53 63 -91 110 -62 78 -92 113
-230 269 -97 109 -133 147 -272 285 -139 139 -187 185 -252 239 -19 15 -30 27
-25 27 4 0 -4 8 -18 18 -14 9 -53 40 -85 68 -94 82 -156 134 -234 194 -25 19
-47 38 -50 41 -3 3 -50 39 -105 80 -55 41 -102 76 -105 79 -6 6 -25 19 -158
111 -51 35 -100 69 -110 74 -9 6 -56 36 -104 68 -48 31 -92 57 -97 57 -5 0
-11 4 -13 8 -4 10 -105 72 -118 72 -6 0 -10 4 -10 9 0 5 -8 11 -17 15 -10 3
-34 15 -53 27 -19 12 -59 34 -88 49 -29 16 -58 33 -65 38 -48 40 -653 324
-867 407 -52 21 -104 41 -115 47 -12 5 -27 10 -35 12 -14 3 -27 7 -110 40 -19
8 -87 31 -150 51 -63 20 -122 39 -130 42 -8 4 -21 7 -28 9 -11 2 -138 39 -217
63 -31 10 -107 30 -137 37 -44 10 -57 13 -116 28 -34 9 -84 21 -110 27 -26 5
-57 11 -69 14 -13 3 -33 7 -45 10 -82 17 -126 26 -148 30 -14 2 -36 6 -50 9
-60 12 -269 46 -320 52 -19 2 -53 6 -75 9 -45 6 -86 11 -165 20 -30 3 -71 8
-90 10 -32 4 -113 11 -250 21 -64 5 -707 13 -712 9z"/>
</g>
</svg>
