<svg version="1" xmlns="http://www.w3.org/2000/svg" width="21.333" height="21.333" viewBox="0 0 16.000000 16.000000"><path d="M7.74.247a1.863 1.863 0 0 1-.135.01 5.977 5.977 0 0 0-.285.02 1.982 1.982 0 0 0-.106.01 4.049 4.049 0 0 1-.072.01 2.94 2.94 0 0 0-.238.031 1.195 1.195 0 0 0-.066.01 5.754 5.754 0 0 0-.432.08c-.123.022-.55.139-.782.214a2.354 2.354 0 0 1-.15.046.187.187 0 0 0-.036.014 1.015 1.015 0 0 1-.094.038 1.58 1.58 0 0 0-.096.035l-.127.05-.143.059-.076.033c-.123.054-.407.192-.528.257a2.28 2.28 0 0 0-.188.104 1.04 1.04 0 0 1-.107.059.203.203 0 0 0-.035.022 8.926 8.926 0 0 0-.254.162l-.164.108a.884.884 0 0 0-.08.055.793.793 0 0 1-.056.041.85.85 0 0 0-.064.048c-.007.007-.016.013-.02.013a.142.142 0 0 0-.038.025c-.044.037-.048.039-.086.066l-.053.041-.03.025a4.708 4.708 0 0 0-.24.199.153.153 0 0 1-.043.03c-.006 0-.01.004-.01.01a.16.16 0 0 1-.04.038c-.023.015-.042.034-.042.04 0 .008-.004.014-.009.014-.025 0-.439.412-.58.579a6.262 6.262 0 0 1-.049.056l-.08.093a4.27 4.27 0 0 1-.084.103.218.218 0 0 1-.034.044.598.598 0 0 0-.106.143.4.4 0 0 0-.06.069.6.6 0 0 1-.056.069.828.828 0 0 1-.107.16 2.067 2.067 0 0 0-.093.142 7.642 7.642 0 0 1-.105.16.11.11 0 0 0-.018.038.01.01 0 0 1-.01.01c-.005 0-.013.01-.017.022a.217.217 0 0 1-.03.055.157.157 0 0 0-.025.038.99.99 0 0 1-.05.091.703.703 0 0 0-.051.098.011.011 0 0 1-.011.01c-.005 0-.007.006-.004.011.003.006 0 .013-.01.016-.008.003-.018.019-.02.035a.077.077 0 0 1-.022.04c-.007.008-.012.017-.01.02.004.006.002.012-.003.015a5.83 5.83 0 0 0-.242.494l-.03.068a13.11 13.11 0 0 0-.198.51 7.182 7.182 0 0 0-.186.622 1.142 1.142 0 0 0-.021.079l-.03.124a4.968 4.968 0 0 0-.084.42l-.008.051-.01.056a1.074 1.074 0 0 0-.01.071l-.01.071a7.601 7.601 0 0 0-.063.625c-.016.23-.01.764.012.996l.02.208a22.842 22.842 0 0 0 .04.325.778.778 0 0 1 .01.061c.005.02.009.05.012.066a.803.803 0 0 0 .01.056c.01.049.014.076.02.115.003.02.01.066.02.102l.041.185a7.411 7.411 0 0 0 .279.944l.067.173a4.163 4.163 0 0 0 .116.283c0 .015.194.413.275.566.073.137.212.374.224.382.005.003.007.009.004.013-.002.005.004.016.015.026.011.01.02.025.02.033 0 .007.005.013.01.013a.01.01 0 0 1 .01.01 2.334 2.334 0 0 0 .184.278c0 .007.009.024.019.037l.164.218.15.199c.005.003.037.041.073.086a3.783 3.783 0 0 0 .162.189 7.303 7.303 0 0 0 .773.75c.03.026.057.048.06.052a.806.806 0 0 0 .056.045l.062.051a.627.627 0 0 1 .08.061.323.323 0 0 0 .072.056 2.6 2.6 0 0 1 .164.122c.007.005.016.01.019.01.004 0 .013.006.02.012.033.03.046.039.056.039.005 0 .01.004.01.008 0 .005.016.016.036.025.019.01.035.023.035.03 0 .006.003.009.006.005.003-.003.011-.001.018.004a2.617 2.617 0 0 0 .22.141.61.61 0 0 0 .091.058.947.947 0 0 1 .066.039.82.82 0 0 0 .077.044c.005.006.024.017.223.121a.884.884 0 0 1 .145.084c.008 0 .063.024.124.053.153.075.278.13.283.126a4.308 4.308 0 0 0 .393.162l.127.048.036.013a7.947 7.947 0 0 0 1.058.284l.045.01c.016.002.04.006.05.009l.062.01a8.6 8.6 0 0 0 .268.042l.066.009.091.012.087.009c.09.011.224.022.36.031.15.01.693.012.839.001.22-.015.389-.03.477-.043l.081-.01c.067-.006.292-.041.382-.06a10.697 10.697 0 0 0 .786-.183 2.902 2.902 0 0 1 .173-.052 3.86 3.86 0 0 0 .122-.04 1.366 1.366 0 0 0 .67-.26 9.37 9.37 0 0 0 .72-.356 8.972 8.972 0 0 0 .536-.334c.005 0 .106-.07.117-.08.003-.004.034-.026.07-.052a.915.915 0 0 0 .078-.056.523.523 0 0 1 .035-.025.216.216 0 0 0 .04-.033 3.14 3.14 0 0 0 .245-.19c.002-.004.03-.026.06-.051a3.509 3.509 0 0 0 .239-.209c.112-.101.379-.367.458-.458l.085-.095c.015-.015.044-.049.066-.076.023-.028.05-.058.06-.069.008-.01.017-.023.017-.028 0-.006.007-.01.015-.01s.015-.006.015-.013a.18.18 0 0 1 .036-.053c.065-.074.076-.089.076-.097a1.992 1.992 0 0 0 .142-.183 6.225 6.225 0 0 0 .196-.28l.099-.143c.005-.007.01-.014.01-.018 0-.002.033-.058.074-.125.09-.142.106-.171.227-.394a8.391 8.391 0 0 0 .324-.68l.026-.066c.01-.026.025-.064.036-.087a.447.447 0 0 0 .02-.05 3.53 3.53 0 0 1 .06-.168 5.652 5.652 0 0 0 .153-.473l.02-.066c.022-.079.017-.057.075-.294a8.226 8.226 0 0 0 .137-.727l.011-.066.01-.086.01-.097c.019-.167.022-.2.033-.376.01-.174.01-.658 0-.818a7.581 7.581 0 0 0-.053-.563l-.01-.07c-.013-.104-.016-.13-.021-.145a.53.53 0 0 1-.01-.056.635.635 0 0 0-.01-.065 2.495 2.495 0 0 0-.098-.47c-.01-.046-.025-.102-.029-.124a3.705 3.705 0 0 0-.04-.147 3.29 3.29 0 0 1-.037-.132 9.546 9.546 0 0 0-.31-.859l-.024-.056a3.464 3.464 0 0 0-.087-.196l-.1-.195a5.583 5.583 0 0 0-.275-.508c0-.006-.183-.292-.24-.374a.572.572 0 0 1-.063-.1.637.637 0 0 1-.058-.075 1.33 1.33 0 0 0-.056-.076 2.36 2.36 0 0 1-.05-.066 1.047 1.047 0 0 0-.059-.074c-.007-.007-.013-.017-.013-.02a.103.103 0 0 0-.023-.033 6.556 6.556 0 0 1-.093-.112 5.68 5.68 0 0 0-.233-.273 5.03 5.03 0 0 0-.277-.29 3.579 3.579 0 0 0-.256-.242c-.02-.016-.03-.028-.025-.028.004 0-.004-.008-.018-.018a1.082 1.082 0 0 1-.087-.07 4.635 4.635 0 0 0-.288-.238 3.97 3.97 0 0 0-.107-.081l-.107-.08c-.006-.007-.025-.02-.16-.113a2.322 2.322 0 0 0-.112-.075l-.106-.07a.761.761 0 0 0-.111-.066.492.492 0 0 0-.12-.073c-.006 0-.01-.004-.01-.009 0-.005-.009-.011-.018-.015a.298.298 0 0 1-.054-.028 1.523 1.523 0 0 0-.089-.05 1.124 1.124 0 0 1-.066-.038c-.049-.04-.664-.33-.881-.413-.053-.022-.106-.042-.117-.048a.298.298 0 0 0-.035-.012.774.774 0 0 1-.112-.041 2.893 2.893 0 0 0-.153-.052A7.773 7.773 0 0 1 10.312.6a7.526 7.526 0 0 1-.249-.073A2.588 2.588 0 0 0 9.924.49a3.562 3.562 0 0 1-.118-.03 4.303 4.303 0 0 0-.181-.04L9.579.41a8.531 8.531 0 0 0-.526-.093 8.206 8.206 0 0 0-.244-.03c-.03-.002-.072-.008-.092-.01a6.837 6.837 0 0 0-.254-.02 20.726 20.726 0 0 0-.723-.01z"/></svg>